      <svg xmlns="http://www.w3.org/2000/svg" xmlns:xlink="http://www.w3.org/1999/xlink" width="401" height="124" viewBox="0 0 401 124">
        <defs>
          <linearGradient id="linear-gradient" x1="-0.17" y1="0.836" x2="1.409" y2="-0.013" gradientUnits="objectBoundingBox">
            <stop offset="0" stop-color="#73e1ff" />
            <stop offset="1" stop-color="#c300d0" />
          </linearGradient>
          <linearGradient id="linear-gradient-2" x1="-0.167" y1="0.865" x2="1.399" y2="-0.014" xlink:href="#linear-gradient" />
          <linearGradient id="linear-gradient-3" x1="-0.163" y1="0.89" x2="1.398" y2="-0.013" xlink:href="#linear-gradient" />
          <linearGradient id="linear-gradient-4" x1="-0.162" y1="0.916" x2="1.398" y2="-0.013" xlink:href="#linear-gradient" />
          <linearGradient id="linear-gradient-5" x1="-0.034" y1="0.548" x2="0.919" y2="0.548" gradientUnits="objectBoundingBox">
            <stop offset="0" stop-color="#00d8ff" />
            <stop offset="1" stop-color="#00d09e" />
          </linearGradient>
          <linearGradient id="linear-gradient-6" x1="-0.087" y1="0.52" x2="0.876" y2="0.52" xlink:href="#linear-gradient-5" />
          <linearGradient id="linear-gradient-7" x1="0.002" y1="0.552" x2="0.953" y2="0.552" xlink:href="#linear-gradient-5" />
        </defs>
        <g id="Group_4924" data-name="Group 4924" transform="translate(-3724.825 -78.232)">
          <rect id="Rectangle_1622" data-name="Rectangle 1622" width="401" height="124" transform="translate(3724.825 78.232)" fill="#885050" opacity="0" />
          <path id="Path_387" data-name="Path 387" d="M1696.392,274.078h-35.807V220.26H1673.8V262.3h22.591Z" transform="translate(2231.017 -130.626)" />
          <path id="Path_373" data-name="Path 373" d="M417.287,500.361l62.363,52.245,33.056-67.443Z" transform="translate(3351.983 -369.542)" fill="url(#linear-gradient)" />
          <path id="Path_374" data-name="Path 374" d="M430.886,521.119l58.84,56.183,37.363-65.155Z" transform="translate(3339.724 -393.873)" opacity="0.24" fill="url(#linear-gradient-2)" />
          <path id="Path_375" data-name="Path 375" d="M445.3,519.976l56.369,58.656,40.13-63.486Z" transform="translate(3326.724 -396.576)" opacity="0.24" fill="url(#linear-gradient-3)" />
          <path id="Path_376" data-name="Path 376" d="M462.342,520.134l53.76,61.055,42.853-61.68Z" transform="translate(3311.364 -400.514)" opacity="0.14" fill="url(#linear-gradient-4)" />
          <path id="Path_377" data-name="Path 377" d="M294.434,226.075l-53.686,96.554,105.981-5.409Z" transform="translate(3511.157 -135.946)" opacity="0.31" fill="url(#linear-gradient-5)" />
          <path id="Path_378" data-name="Path 378" d="M325.652,214.936,282.78,316.753l104.763-16.9Z" transform="translate(3473.26 -125.904)" opacity="0.13" fill="url(#linear-gradient-6)" />
          <path id="Path_380" data-name="Path 380" d="M1675.791,741.821V712.093L1664.85,736.7h-2.706l-11.154-24.738v29.857h-2.735V705.686h2.735l12.562,27.836,12.245-27.836h2.732v36.135Z" transform="translate(2244.82 -555.952)" />
          <path id="Path_381" data-name="Path 381" d="M1999.76,741.821V705.686h21.863v2.43H2002.5V722.39h16.3v2.43h-16.3V739.4h19.128v2.43Z" transform="translate(1934.713 -555.952)" />
          <path id="Path_382" data-name="Path 382" d="M2235.814,708.116v33.708h-2.732V708.116h-10.729v-2.43H2246.6v2.43Z" transform="translate(1738.339 -555.952)" />
          <path id="Path_383" data-name="Path 383" d="M2509.58,741.829l-8.65-16.653h-9.852v16.65h-2.735V705.691h13.7a10.792,10.792,0,0,1,7.423,2.57,9.04,9.04,0,0,1,2.911,7.137,9.59,9.59,0,0,1-2.228,6.566,10.022,10.022,0,0,1-6.073,3.206l8.7,16.65Zm-7.888-33.711h-10.615v14.626H2501.7a8.645,8.645,0,0,0,5.8-1.827,8.038,8.038,0,0,0,0-10.943,8.564,8.564,0,0,0-5.806-1.853Z" transform="translate(1503.686 -555.958)" />
          <path id="Path_384" data-name="Path 384" d="M2770.653,741.821V705.686h2.735v36.135Z" transform="translate(1254.615 -555.952)" />
          <path id="Path_385" data-name="Path 385" d="M2888.742,740.186a12.825,12.825,0,0,1-4.853-.962,13.208,13.208,0,0,1-4.406-2.986,9.088,9.088,0,0,1-2.569-4.834,58.584,58.584,0,0,1-.531-9.538q0-5.667.286-8.756a10.6,10.6,0,0,1,3.514-6.326,11.569,11.569,0,0,1,8.565-3.24,12.086,12.086,0,0,1,8.125,2.784,12.62,12.62,0,0,1,4.126,7.742h-2.784a10.415,10.415,0,0,0-3.314-5.947,9.113,9.113,0,0,0-6.15-2.149,8.585,8.585,0,0,0-6.352,2.3,9.365,9.365,0,0,0-2.783,4.91,53.88,53.88,0,0,0-.481,8.682q0,5.264.286,8.071a7.268,7.268,0,0,0,2.052,4.568,11.173,11.173,0,0,0,3.539,2.507,9.7,9.7,0,0,0,3.745.734,9.309,9.309,0,0,0,6.2-2.15,10.306,10.306,0,0,0,3.365-5.947H2901a12.692,12.692,0,0,1-4.148,7.691,11.965,11.965,0,0,1-8.115,2.847Z" transform="translate(1161.334 -554.063)" />
          <path id="Path_386" data-name="Path 386" d="M3151.775,740.185a18.019,18.019,0,0,1-6.732-1.088,16.176,16.176,0,0,1-5.265-3.669l1.926-1.924a12.678,12.678,0,0,0,10.221,4.251,10.6,10.6,0,0,0,6.782-1.973,6.6,6.6,0,0,0,2.482-5.465,5.913,5.913,0,0,0-1.5-4.6,8.706,8.706,0,0,0-2.451-1.671,19.167,19.167,0,0,0-3.241-.707l-4.2-.657a12.975,12.975,0,0,1-6.678-2.809,8.009,8.009,0,0,1-2.57-6.453,9.188,9.188,0,0,1,2.984-7.186,11.829,11.829,0,0,1,8.2-2.681,15.841,15.841,0,0,1,5.618.885,16.006,16.006,0,0,1,4.757,3.009l-1.773,1.773a14.125,14.125,0,0,0-3.819-2.569,12.5,12.5,0,0,0-4.934-.825,8.906,8.906,0,0,0-6.125,1.978,6.938,6.938,0,0,0-2.224,5.473,5.886,5.886,0,0,0,1.973,4.79,10.55,10.55,0,0,0,5.264,2.153l3.9.608a22.616,22.616,0,0,1,3.9.856,13.342,13.342,0,0,1,3.467,2.284,7.71,7.71,0,0,1,2.2,6.232,8.972,8.972,0,0,1-3.262,7.274A13.482,13.482,0,0,1,3151.775,740.185Z" transform="translate(928.965 -554.062)" />
          <path id="Path_388" data-name="Path 388" d="M2039.775,274.078h-13.213V220.26h13.213Z" transform="translate(1908.142 -130.626)" />
          <path id="Path_389" data-name="Path 389" d="M2254.118,247.276a39.372,39.372,0,0,1-1.2,10.74,16.584,16.584,0,0,1-4.259,7.16,20.028,20.028,0,0,1-4.665,3.58,18.434,18.434,0,0,1-5.178,1.919,28.766,28.766,0,0,1-5.791.554,20.127,20.127,0,0,1-14.938-6.055,15.951,15.951,0,0,1-4.5-8.045,56.488,56.488,0,0,1-.96-11.442v-3.617a56.739,56.739,0,0,1,.959-11.463,15.954,15.954,0,0,1,4.5-8.065,20.488,20.488,0,0,1,6.6-4.539,21.556,21.556,0,0,1,8.337-1.476,20.1,20.1,0,0,1,14.768,5.139,21.6,21.6,0,0,1,6.249,12.7h-13.323a8.442,8.442,0,0,0-2.584-4.614,7.966,7.966,0,0,0-5.139-1.427,6.165,6.165,0,0,0-5.208,2.361,7.146,7.146,0,0,0-1.088,2.087,17.345,17.345,0,0,0-.646,3.8q-.222,2.57-.219,7.326t.219,7.346a17.849,17.849,0,0,0,.645,3.84,7.1,7.1,0,0,0,1.088,2.1,6.184,6.184,0,0,0,5.207,2.284,7.237,7.237,0,0,0,7.937-7.862v-.774H2233V239.8h21.126Z" transform="translate(1743.99 -127.334)" />
          <path id="Path_390" data-name="Path 390" d="M2679.252,274.078H2666.04V252.743h-14.064v21.335h-13.215V220.26h13.215v20.707h14.064V220.26h13.212Z" transform="translate(1368.047 -130.626)" />
          <path id="Path_391" data-name="Path 391" d="M3083.936,232.034H3070.7v42.045h-13.213V232.034H3044.23V220.26h39.717Z" transform="translate(1010.343 -130.626)" />
          <path id="Path_418" data-name="Path 418" d="M275.237,238.08,214.42,330.312l106.086,2.6Z" transform="translate(3534.897 -146.768)" opacity="0.4" fill="url(#linear-gradient-7)" />
        </g>
      </svg>